<svg xmlns="http://www.w3.org/2000/svg" width="64" height="64" viewBox="0 0 64 64" fill="none">
  <rect width="64" height="64" rx="16" fill="#0B0F19"/>
  <path d="M32 10L47 16V27C47 37.2 40.68 46.35 32 50C23.32 46.35 17 37.2 17 27V16L32 10Z" fill="url(#shieldFill)"/>
  <path d="M32 14.4L43 18.8V26.74C43 34.77 38.29 42 32 45C25.71 42 21 34.77 21 26.74V18.8L32 14.4Z" stroke="#D7E4FF" stroke-width="2.2" stroke-linejoin="round"/>
  <path d="M32 21L23.8 41H28.58L30.34 36.44H38.97L40.74 41H45.52L37.26 21H32ZM31.94 32.53L34.63 25.48L37.33 32.53H31.94Z" fill="white"/>
  <defs>
    <linearGradient id="shieldFill" x1="17" y1="10" x2="47" y2="50" gradientUnits="userSpaceOnUse">
      <stop stop-color="#3B82F6"/>
      <stop offset="1" stop-color="#14B8A6"/>
    </linearGradient>
  </defs>
</svg>
